<?xml version="1.0" encoding="utf-8"?>
<!-- Generator: Adobe Illustrator 23.0.3, SVG Export Plug-In . SVG Version: 6.00 Build 0)  -->
<svg version="1.1" id="Layer_1" xmlns="http://www.w3.org/2000/svg" xmlns:xlink="http://www.w3.org/1999/xlink" x="0px" y="0px"
	 viewBox="0 0 200 50" style="enable-background:new 0 0 200 50;" xml:space="preserve">
<style type="text/css">
	.st0{fill:#3E68C0;}
	.st1{fill:#3D5A98;}
	.st2{fill:#FFFFFF;}
	.st3{fill:#0084BF;}
	.st4{fill:#0073B0;}
	.st5{fill:#45ABFF;}
	.st6{fill:#3D99E5;}
</style>
<path id="Blue_2_" class="st0" d="M197.2,50c1.5,0,2.8-1.2,2.8-2.8V2.8c0-1.5-1.2-2.8-2.8-2.8H2.8C1.2,0,0,1.2,0,2.8v44.5
	C0,48.8,1.2,50,2.8,50H197.2z"/>
<path id="Blue_1_" class="st1" d="M50,50V0H2.8C1.2,0,0,1.2,0,2.8v44.5C0,48.8,1.2,50,2.8,50H50z"/>
<path id="f" class="st2" d="M26.9,37V26.1h3.7l0.6-4.3h-4.2v-2.7c0-1.2,0.3-2.1,2.1-2.1l2.3,0v-3.8c-0.4-0.1-1.7-0.2-3.3-0.2
	c-3.3,0-5.5,2-5.5,5.6v3.1h-3.7v4.3h3.7V37H26.9z"/>
<g>
	<path class="st2" d="M71.6,17.6h9.5V20h-6.7v4.4h5.7v2.4h-5.7v6.6h-2.8V17.6z"/>
	<path class="st2" d="M82.1,30.1c0-2.5,2.1-3.8,6.9-4.4c0-1.2-0.6-2.3-2.2-2.3c-1.2,0-2.3,0.5-3.3,1.2l-1-1.8c1.3-0.8,3-1.5,4.8-1.5
		c2.9,0,4.4,1.8,4.4,5.1v7h-2.3L89.4,32h-0.1c-1.1,0.9-2.3,1.6-3.6,1.6C83.6,33.6,82.1,32.2,82.1,30.1z M89.1,30.1v-2.6
		c-3.2,0.4-4.3,1.2-4.3,2.4c0,1.1,0.7,1.5,1.7,1.5C87.5,31.4,88.2,30.9,89.1,30.1z"/>
	<path class="st2" d="M94.4,27.4c0-3.9,2.8-6.2,5.9-6.2c1.5,0,2.6,0.6,3.5,1.3l-1.3,1.8c-0.6-0.6-1.2-0.9-2-0.9
		c-1.9,0-3.2,1.6-3.2,3.9c0,2.4,1.3,3.9,3.1,3.9c0.9,0,1.8-0.5,2.4-1l1.1,1.8c-1.1,1-2.5,1.4-3.8,1.4C96.9,33.6,94.4,31.3,94.4,27.4
		z"/>
	<path class="st2" d="M104.9,27.4c0-3.8,2.7-6.2,5.4-6.2c3.2,0,4.9,2.3,4.9,5.6c0,0.5,0,1.1-0.1,1.3h-7.5c0.2,2.1,1.6,3.3,3.5,3.3
		c1,0,1.9-0.3,2.7-0.9l0.9,1.7c-1.1,0.7-2.5,1.3-4,1.3C107.4,33.6,104.9,31.3,104.9,27.4z M112.8,26.3c0-1.8-0.8-2.9-2.4-2.9
		c-1.4,0-2.6,1-2.8,2.9H112.8z"/>
	<path class="st2" d="M120.3,32.1L120.3,32.1l-0.3,1.2h-2.2V16.4h2.8v4.4l-0.1,2c1-0.9,2.2-1.5,3.4-1.5c3,0,4.7,2.4,4.7,6
		c0,4.1-2.4,6.4-5,6.4C122.5,33.6,121.3,33,120.3,32.1z M125.7,27.3c0-2.4-0.8-3.7-2.5-3.7c-0.9,0-1.7,0.4-2.6,1.3v5.5
		c0.8,0.7,1.7,1,2.4,1C124.5,31.3,125.7,29.9,125.7,27.3z"/>
	<path class="st2" d="M130.6,27.4c0-3.9,2.7-6.2,5.6-6.2c3,0,5.6,2.3,5.6,6.2c0,3.9-2.7,6.2-5.6,6.2
		C133.2,33.6,130.6,31.3,130.6,27.4z M138.9,27.4c0-2.4-1.1-3.9-2.8-3.9s-2.8,1.6-2.8,3.9c0,2.4,1,3.9,2.8,3.9
		S138.9,29.8,138.9,27.4z"/>
	<path class="st2" d="M143.7,27.4c0-3.9,2.7-6.2,5.6-6.2c3,0,5.6,2.3,5.6,6.2c0,3.9-2.7,6.2-5.6,6.2
		C146.4,33.6,143.7,31.3,143.7,27.4z M152.1,27.4c0-2.4-1.1-3.9-2.8-3.9s-2.8,1.6-2.8,3.9c0,2.4,1,3.9,2.8,3.9
		S152.1,29.8,152.1,27.4z"/>
	<path class="st2" d="M157.7,16.4h2.7v10.6h0.1l4.4-5.4h3l-4,4.8l4.4,7h-3l-3-5.1l-1.8,2.1v3h-2.7V16.4z"/>
</g>
</svg>
